<?xml version="1.0" encoding="UTF-8"?>
<svg width="30px" height="30px" viewBox="0 0 30 30" version="1.1" xmlns="http://www.w3.org/2000/svg" xmlns:xlink="http://www.w3.org/1999/xlink">
    <!-- Generator: Sketch 60 (88103) - https://sketch.com -->
    <title>编组 2</title>
    <desc>Created with Sketch.</desc>
    <g id="修改" stroke="none" stroke-width="1" fill="none" fill-rule="evenodd">
        <g id="2" transform="translate(-293.000000, -295.000000)">
            <g id="编组-2" transform="translate(293.000000, 295.000000)">
                <rect id="矩形" fill="#F8F8F8" x="0" y="0" width="30" height="30"></rect>
                <g id="cross-circle-o" transform="translate(5.000000, 6.000000)" fill="#444444" fill-rule="nonzero">
                    <path d="M10.9722893,9.9932667 L13.8890974,12.9100963 L12.9168424,13.8823513 L10.0000128,10.9655432 L7.08318323,13.8823513 L6.1109282,12.9100963 L9.02773628,9.9932667 L6.1109282,7.07645862 L7.08318323,6.10416061 L10.0000128,9.02096869 L12.9168424,6.10416061 L13.8890974,7.07643713 L10.9722893,9.99324521 L10.9722893,9.9932667 Z M10.0000128,0.3750016 C15.3098178,0.3750016 19.625024,4.69020779 19.625024,10.0000128 C19.625024,15.3098178 15.3098178,19.625024 10.0000128,19.625024 C4.69020779,19.625024 0.3750016,15.3098178 0.3750016,10.0000128 C0.3750016,4.69020779 4.69020779,0.3750016 10.0000128,0.3750016 Z M10.0000128,1.7500032 C5.44961688,1.7500032 1.7500032,5.44961688 1.7500032,10.0000128 C1.7500032,14.5504087 5.44961688,18.2500224 10.0000128,18.2500224 C14.5504087,18.2500224 18.2500224,14.5504087 18.2500224,10.0000128 C18.2500224,5.44961688 14.5504087,1.7500032 10.0000128,1.7500032 Z" id="形状"></path>
                </g>
            </g>
        </g>
    </g>
</svg>