<?xml version="1.0" encoding="UTF-8"?>
<svg width="66px" height="59px" viewBox="0 0 66 59" version="1.1" xmlns="http://www.w3.org/2000/svg" xmlns:xlink="http://www.w3.org/1999/xlink">
    <!-- Generator: Sketch 60 (88103) - https://sketch.com -->
    <title>照片</title>
    <desc>Created with Sketch.</desc>
    <g id="修改" stroke="none" stroke-width="1" fill="none" fill-rule="evenodd">
        <g id="1" transform="translate(-155.000000, -171.000000)" fill="#333333" fill-rule="nonzero">
            <g id="照片" transform="translate(155.000000, 171.000000)">
                <path d="M0.0241706961,9.0949891 L0.0241706961,49.3187512 C0.0241706961,53.0722901 0.708408953,53.7881813 4.04793074,53.7881813 L49.6489641,53.7881813 C52.9609786,53.7881813 53.6726074,53.1030089 53.6726074,49.3187512 L53.6726074,9.09504749 C53.6726074,5.42996294 53.0414394,4.62561732 49.6489641,4.62561732 L4.04775557,4.62561732 C0.720851772,4.62561732 0.0241706961,5.26525178 0.0241706961,9.09504749 L0.0241706961,9.09504749 L0.0241706961,9.0949891 Z M6.3688989,43.3592774 C9.35517153,38.5224016 14.1785982,32.0717742 20.839179,24.0073951 C26.5795362,30.5230491 30.451096,34.9277446 32.4538585,37.2214819 C32.4538585,37.2214819 34.4166825,35.309883 38.3423306,31.4866853 C44.3062809,39.3623493 47.3106776,43.31988 47.3555208,43.3592774 L6.3688989,43.3592774 Z M35.3119115,17.5369416 C35.3119115,14.7723002 37.5472255,12.536862 40.3119705,12.536862 C43.0766565,12.536862 45.3119115,14.7724011 45.3119115,17.5369416 C45.3119115,20.3011051 43.0766565,22.536862 40.3119705,22.536862 C37.5472255,22.536862 35.3119115,20.3013228 35.3119115,17.5368885 L35.3119115,17.5369416 Z M25.1844087,1.92947861 L17.3398333,0.275950015 C14.7362304,-0.273007183 13.7044106,-0.0751324974 13.0672869,1.92942022 L25.1844087,1.92947861 L25.1844087,1.92947861 L25.1844087,1.92947861 Z M62.1408127,9.71975757 L56.0006816,8.42548837 C56.0032506,8.59113317 56.0044183,8.75595994 56.0044183,8.91821815 L56.0044183,49.3707506 C56.0044183,51.2475493 55.892315,53.3721474 54.5564152,54.8262231 C53.2571829,56.2407106 51.3748956,56.3592998 49.7126086,56.3592998 L46.0101547,56.3592998 L53.8888355,58.0201855 C57.1429333,58.7061754 57.9570242,58.1802249 58.5922794,54.4625903 L65.3438662,14.9444663 C65.9590354,11.3433767 65.4741865,10.4226081 62.1407425,9.71997711 L62.1408009,9.71974356 L62.1408127,9.71975757 Z" id="形状"></path>
            </g>
        </g>
    </g>
</svg>